<?xml version="1.0" standalone="no"?>
<!DOCTYPE svg PUBLIC "-//W3C//DTD SVG 20010904//EN"
 "http://www.w3.org/TR/2001/REC-SVG-20010904/DTD/svg10.dtd">
<svg version="1.0" xmlns="http://www.w3.org/2000/svg"
 width="617.000000pt" height="617.000000pt" viewBox="0 0 617.000000 617.000000"
 preserveAspectRatio="xMidYMid meet">
<metadata>
Created by potrace 1.14, written by Peter Selinger 2001-2017
</metadata>
<g transform="translate(0.000000,617.000000) scale(0.100000,-0.100000)"
fill="#000000" stroke="none">
<path d="M3050 5993 c-66 -9 -118 -28 -241 -87 -74 -35 -177 -84 -229 -109
-52 -25 -156 -74 -230 -110 -303 -145 -358 -171 -435 -207 -44 -21 -143 -68
-220 -105 -77 -37 -205 -99 -285 -137 -658 -314 -631 -300 -690 -358 -30 -30
-65 -76 -78 -101 -12 -25 -65 -232 -117 -460 -53 -228 -102 -441 -110 -474
-15 -65 -65 -281 -70 -305 -8 -41 -138 -605 -155 -675 -38 -156 -88 -381 -96
-430 -17 -106 3 -204 59 -287 24 -35 465 -588 652 -816 8 -9 53 -66 101 -127
48 -60 90 -112 94 -115 3 -3 77 -95 165 -205 88 -110 162 -202 165 -205 3 -3
68 -84 144 -180 191 -239 211 -258 321 -300 l60 -23 1200 -1 c660 -1 1224 2
1253 7 68 10 158 55 208 104 22 21 133 155 247 298 114 143 213 267 220 275 7
8 105 130 217 270 113 140 207 257 210 260 3 3 21 25 40 50 19 25 37 47 40 50
29 26 534 668 549 698 52 103 53 178 6 387 -20 88 -38 167 -40 175 -6 29 -56
245 -62 270 -3 14 -8 33 -10 44 -3 18 -21 94 -64 274 -24 99 -26 110 -39 172
-5 25 -21 95 -35 155 -14 61 -36 157 -50 215 -13 58 -42 182 -64 275 -22 94
-42 181 -45 195 -2 14 -21 95 -41 180 -19 85 -38 166 -41 179 -10 48 -57 125
-105 173 -49 49 -113 83 -516 274 -224 106 -286 136 -418 199 -77 37 -180 86
-230 110 -115 54 -264 125 -435 208 -74 35 -175 83 -225 107 -49 24 -154 74
-233 111 -195 94 -260 113 -342 102z"/>
</g>
</svg>
